<svg width="502" height="490" viewBox="0 0 502 490" fill="none" xmlns="http://www.w3.org/2000/svg">
<rect x="1.5" y="0.5" width="499" height="408" fill="white" stroke="white"/>
<path d="M43.0712 462.333L38.6214 452L41.8576 444.772L37.0032 438.919L31.7443 437.618L28.1036 433.065L22.8447 435.341L15.9676 436.317L12.7314 441.195L5.04531 444.122H1V409H501V445.098H492.1L489.269 451.276L483.201 458.106L471.874 464.935H464.997L461.356 472.415L454.479 473.715L453.265 478.268L452.052 483.146L446.388 485.423H440.32L434.657 489L428.589 485.423H418.88L416.453 479.569L406.34 475.341L400.272 476.317L394.204 472.415L388.945 478.268H384.9L378.023 472.415L364.269 464.935L353.751 462.333L344.447 454.203H332.715L321.388 447.374L309.252 436.317H296.712L293.071 428.512L284.576 423.309L276.081 425.585L263.945 432.089L255.45 423.309L240.887 428.512L234.819 434.041L225.515 436.317H214.592L207.311 430.463L195.984 428.512L197.197 437.293L184.657 436.317L177.375 440.545L170.903 434.041L164.026 444.122L152.294 451.5L144.608 440.545L145.417 430.463L131.663 434.041L127.214 428.512L121.146 429.488L115.078 428.512L107.392 432.089L99.301 433.065L92.0194 434.041L85.1424 438.919L77.4563 442.496L67.7476 444.122L65.3204 448.024L61.6796 454.5L49.9482 460L43.0712 462.333Z" fill="white" stroke="white"/>
</svg>
