<svg width="89" height="64" viewBox="0 0 89 64" fill="none" xmlns="http://www.w3.org/2000/svg">
<rect x="79.21" y="6.69" width="8" height="11" fill="#FFEDBF"/>
<rect x="45.5112" y="26.3147" width="11.5037" height="35.9489" fill="#FFEDBF"/>
<rect x="34.0073" y="26.3147" width="11.5037" height="35.9489" fill="#D50B4B"/>
<rect x="77.146" y="45.0081" width="10.0657" height="17.2555" fill="#FFEDBF"/>
<rect x="1.43799" y="7.62125" width="7.18978" height="10.0657" fill="#D50B4B"/>
<rect x="45.5112" y="60.8256" width="43.1387" height="2.87591" fill="#FFEDBF"/>
<rect x="74.2705" y="43.5702" width="14.3796" height="1.43796" fill="#FFEDBF"/>
<rect x="77.146" y="17.6869" width="11.5037" height="1.43796" fill="#FFEDBF"/>
<rect y="17.6869" width="10.0657" height="1.43796" fill="#C80B43"/>
<rect x="0.93457" y="60.8256" width="44.5766" height="2.87591" fill="#D50B4B"/>
<rect x="57.0151" y="53.6358" width="8.62774" height="5.75183" fill="#D50B4B"/>
<rect x="57.0151" y="30.6285" width="8.62774" height="5.75183" fill="#D50B4B"/>
<rect x="57.0151" y="43.5702" width="8.62774" height="1.43796" fill="#FFEDBF"/>
<rect width="10.0657" height="35.9489" transform="matrix(0.695707 0.718325 -0.695707 0.718325 70.521 0.431458)" fill="#FFEDBF"/>
<rect width="10.0657" height="38.239" transform="matrix(0.695662 -0.718369 0.740251 0.672331 10.2397 7.80713)" fill="#D50B4B"/>
<rect x="70.6035" y="0.431458" width="16.6084" height="7.18978" fill="#FFEDBF"/>
<rect x="1.43799" y="0.5896" width="15.8175" height="7.18978" fill="#D50B4B"/>
<rect x="65.6426" y="36.3804" width="4.31387" height="7.18978" fill="#D50B4B"/>
<rect x="65.6426" y="45.0081" width="4.31387" height="8.62774" fill="#D50B4B"/>
</svg>
